<?xml version="1.0" encoding="UTF-8"?>
<svg xmlns="http://www.w3.org/2000/svg" xmlns:xlink="http://www.w3.org/1999/xlink" width="20px" height="20px" viewBox="0 0 20 20" version="1.1">
<g id="surface1">
<path style=" stroke:none;fill-rule:nonzero;fill:#dc2430;fill-opacity:1;" d="M 9.167969 19.152344 C 4.113281 19.152344 0 15.042969 0 9.988281 C 0 4.933594 4.113281 0.820312 9.167969 0.820312 C 10.925781 0.820312 12.632812 1.320312 14.109375 2.269531 C 14.402344 2.457031 14.484375 2.84375 14.300781 3.132812 C 14.113281 3.425781 13.726562 3.507812 13.433594 3.324219 C 12.160156 2.503906 10.683594 2.070312 9.167969 2.070312 C 4.800781 2.070312 1.25 5.621094 1.25 9.988281 C 1.25 14.351562 4.800781 17.902344 9.167969 17.902344 C 13.53125 17.902344 17.082031 14.351562 17.082031 9.988281 C 17.082031 9.726562 17.070312 9.46875 17.046875 9.214844 C 17.011719 8.871094 17.265625 8.566406 17.609375 8.53125 C 17.953125 8.5 18.257812 8.75 18.289062 9.09375 C 18.320312 9.386719 18.332031 9.6875 18.332031 9.988281 C 18.332031 15.042969 14.21875 19.152344 9.167969 19.152344 Z M 9.167969 19.152344 "/>
<path style=" stroke:none;fill-rule:nonzero;fill:#dc2430;fill-opacity:1;" d="M 10.207031 12.070312 C 10.046875 12.070312 9.886719 12.007812 9.765625 11.886719 L 6.015625 8.136719 C 5.773438 7.894531 5.773438 7.496094 6.015625 7.253906 C 6.261719 7.007812 6.65625 7.007812 6.902344 7.253906 L 10.207031 10.5625 L 18.933594 1.835938 C 19.175781 1.59375 19.574219 1.59375 19.816406 1.835938 C 20.0625 2.082031 20.0625 2.476562 19.816406 2.722656 L 10.652344 11.886719 C 10.527344 12.007812 10.367188 12.070312 10.207031 12.070312 Z M 10.207031 12.070312 "/>
</g>
</svg>
