<svg width="30px" height="30px" viewBox="0 0 30 30" version="1.1">
<g id="surface1">
<path d="M 15 0.625 C 6.710938 0.625 0 7.226562 0 15.363281 C 0 21.878906 4.296875 27.402344 10.257812 29.351562 C 11.007812 29.488281 11.28125 29.03125 11.28125 28.640625 C 11.28125 28.292969 11.269531 27.363281 11.261719 26.136719 C 7.089844 27.023438 6.210938 24.15625 6.210938 24.15625 C 5.527344 22.457031 4.542969 22 4.542969 22 C 3.183594 21.085938 4.644531 21.105469 4.644531 21.105469 C 6.152344 21.207031 6.945312 22.625 6.945312 22.625 C 8.28125 24.878906 10.453125 24.226562 11.3125 23.851562 C 11.449219 22.898438 11.832031 22.25 12.261719 21.878906 C 8.929688 21.511719 5.429688 20.242188 5.429688 14.597656 C 5.429688 12.988281 6.011719 11.671875 6.972656 10.640625 C 6.804688 10.269531 6.296875 8.769531 7.105469 6.738281 C 7.105469 6.738281 8.359375 6.34375 11.230469 8.25 C 12.429688 7.921875 13.703125 7.761719 14.980469 7.753906 C 16.253906 7.761719 17.53125 7.921875 18.730469 8.25 C 21.578125 6.34375 22.835938 6.738281 22.835938 6.738281 C 23.640625 8.769531 23.136719 10.269531 22.984375 10.640625 C 23.941406 11.671875 24.523438 12.988281 24.523438 14.597656 C 24.523438 20.257812 21.015625 21.503906 17.679688 21.867188 C 18.203125 22.308594 18.691406 23.214844 18.691406 24.59375 C 18.691406 26.566406 18.671875 28.152344 18.671875 28.632812 C 18.671875 29.015625 18.9375 29.480469 19.703125 29.332031 C 25.707031 27.394531 30 21.867188 30 15.363281 C 30 7.226562 23.285156 0.625 15 0.625 Z M 15 0.625 "/>
</g>
</svg>
