<svg width="30px" height="30px" viewBox="0 0 30 30" version="1.1">
<defs>
<linearGradient id="linear0" gradientUnits="userSpaceOnUse" x1="-37.106" y1="-72.705" x2="-26.555" y2="-84.047" gradientTransform="matrix(0,-2.4775,-2.305,0,-165.6525,-63.84625)">
<stop offset="0" style="stop-color:rgb(100%,86.666667%,33.333333%);stop-opacity:1;"/>
<stop offset="0.5" style="stop-color:rgb(100%,32.941176%,24.313725%);stop-opacity:1;"/>
<stop offset="1" style="stop-color:rgb(78.431373%,21.568627%,67.058824%);stop-opacity:1;"/>
</linearGradient>
</defs>
<g id="surface1">
<path class="inst" d="M 1.875 2.042969 C -0.484375 4.488281 0 7.089844 0 14.992188 C 0 21.554688 -1.144531 28.136719 4.847656 29.683594 C 6.71875 30.164062 23.296875 30.164062 25.167969 29.679688 C 27.664062 29.039062 29.691406 27.015625 29.96875 23.484375 C 30.007812 22.992188 30.007812 7.003906 29.96875 6.5 C 29.671875 2.742188 27.359375 0.578125 24.3125 0.136719 C 23.613281 0.0351562 23.472656 0.0078125 19.886719 0 C 7.171875 0.0078125 4.382812 -0.558594 1.875 2.042969 Z M 1.875 2.042969 "/>
<path style=" stroke:none;fill-rule:nonzero;fill:rgb(100%,100%,100%);fill-opacity:1;" d="M 14.996094 3.921875 C 10.457031 3.921875 6.148438 3.519531 4.503906 7.746094 C 3.824219 9.488281 3.921875 11.757812 3.921875 15 C 3.921875 17.847656 3.828125 20.523438 4.503906 22.257812 C 6.144531 26.484375 10.488281 26.078125 14.996094 26.078125 C 19.339844 26.078125 23.824219 26.53125 25.488281 22.257812 C 26.171875 20.492188 26.070312 18.261719 26.070312 15 C 26.070312 10.671875 26.308594 7.878906 24.210938 5.78125 C 22.085938 3.65625 19.210938 3.921875 14.992188 3.921875 Z M 14.003906 5.921875 C 23.472656 5.90625 24.675781 4.851562 24.011719 19.472656 C 23.777344 24.644531 19.839844 24.078125 15 24.078125 C 6.171875 24.078125 5.921875 23.824219 5.921875 14.996094 C 5.921875 6.066406 6.621094 5.925781 14.003906 5.917969 Z M 20.910156 7.757812 C 20.175781 7.757812 19.582031 8.355469 19.582031 9.085938 C 19.582031 9.820312 20.175781 10.417969 20.910156 10.417969 C 21.644531 10.417969 22.238281 9.820312 22.238281 9.085938 C 22.238281 8.355469 21.644531 7.757812 20.910156 7.757812 Z M 14.996094 9.3125 C 11.855469 9.3125 9.308594 11.859375 9.308594 15 C 9.308594 18.140625 11.855469 20.6875 14.996094 20.6875 C 18.140625 20.6875 20.683594 18.140625 20.683594 15 C 20.683594 11.859375 18.140625 9.3125 14.996094 9.3125 Z M 14.996094 11.308594 C 19.878906 11.308594 19.886719 18.695312 14.996094 18.695312 C 10.117188 18.695312 10.109375 11.308594 14.996094 11.308594 Z M 14.996094 11.308594 "/>
</g>
</svg>
